# xmcd
#
# Track frame offsets:
#	150
#	58027
#	75699
#	94194
#	109102
#	126825
#	144844
#	161432
#	177546
#	192114
#	210778
#	229365
#	245375
#	261291
#	280592
#	297975
#	317131
#	334259
#
# Disc length: 4680 seconds
#
# Revision: 1
# Processed by: cddbd v1.5.2PL0 Copyright (c) Steve Scherf et al.
# Submitted via: EZCDAudioConverter 2.1.7.1
#
DISCID=04124612
DTITLE=Various Artist - Kix Klassics [CD2]
DYEAR=2000
DGENRE=Dance
TTITLE0=Various Artist - Kix Klassics Megamix
TTITLE1=Amadin - Alrabaiye (Take me up)
TTITLE2=Fargetta - This Time
TTITLE3=Tatjana - Santa Maria
TTITLE4=C J Wilson - Dai La Li La La
TTITLE5=DJ Bobo - Let The Dream Come True
TTITLE6=Koko - Open Your Eyes
TTITLE7=Central Seven - The Opera (radio mix)
TTITLE8=DJ Supreme - Tha Wildstyle
TTITLE9=Sheyrl Lee Ralph - In The Evening
TTITLE10=Whigfield - Saturday Night
TTITLE11=DJ Bobo - Somebody Dance With Me
TTITLE12=Galaxy - Freed From Desire
TTITLE13=Sunshine State - It's a Fine Day
TTITLE14=Catalana - Summer of Love
TTITLE15=Poppers Present Aura - Every Little Time
TTITLE16=Smash 'n' Grab - Drive Me Crazy
TTITLE17=Union State - Retrosexual
EXTD=
EXTT0=
EXTT1=
EXTT2=
EXTT3=
EXTT4=
EXTT5=
EXTT6=
EXTT7=
EXTT8=
EXTT9=
EXTT10=
EXTT11=
EXTT12=
EXTT13=
EXTT14=
EXTT15=
EXTT16=
EXTT17=
PLAYORDER=
